<svg width="30" height="30" viewBox="0 0 30 30" fill="none" xmlns="http://www.w3.org/2000/svg">
<path opacity="0.4" fill-rule="evenodd" clip-rule="evenodd" d="M11.1838 6.35198H18.8621V4.56421H11.1838V6.35198ZM9.43707 4.63763V4.64653C8.83768 4.70104 8.24473 4.82007 7.66786 4.99919V4.99251C7.65071 4.99972 7.63457 5.00527 7.61907 5.0106C7.59873 5.01759 7.57951 5.0242 7.56064 5.03367C7.51453 5.0448 7.4695 5.06149 7.42661 5.08262C7.30008 5.12378 7.17356 5.17273 7.05454 5.2228C7.02291 5.23503 6.99128 5.24922 6.95965 5.2634C6.92801 5.27759 6.89638 5.29177 6.86475 5.30401C6.82133 5.32459 6.77602 5.34712 6.73072 5.36965C6.68542 5.39217 6.64012 5.4147 6.59669 5.43528L6.38224 5.55877C6.34259 5.57899 6.30589 5.60271 6.26844 5.62691C6.24614 5.64132 6.22357 5.6559 6.19996 5.67002C5.87721 5.87805 5.57806 6.12169 5.30785 6.3987L5.29177 6.41539C5.25628 6.45676 5.22094 6.4969 5.18608 6.53649C5.1272 6.60337 5.06968 6.6687 5.01513 6.73578L4.99905 6.75136C4.12195 7.96175 3.68233 9.4536 3.75846 10.9655V11.445H5.49013V10.961C5.49013 8.85396 6.16136 7.54234 7.655 6.87039C8.22543 6.62898 8.82803 6.47991 9.44136 6.4254H9.45744V4.64541L9.43707 4.63763ZM24.9975 6.72911L25.005 6.74468C25.881 7.95619 26.3185 9.44915 26.2413 10.961V11.445H24.5107V10.9488C24.5471 10.0566 24.3681 9.1688 23.9885 8.3667C23.6239 7.68029 23.0406 7.14741 22.3362 6.85816C21.7754 6.61675 21.1814 6.46656 20.5755 6.41316V4.64208C21.1749 4.6977 21.7679 4.81563 22.3458 4.99474V4.98584C22.3783 5.00057 22.4031 5.00933 22.4456 5.02437L22.453 5.027C22.4728 5.03398 22.4912 5.04096 22.5094 5.04786C22.5347 5.05745 22.5596 5.06689 22.5871 5.07595C22.7056 5.11484 22.8165 5.16069 22.9306 5.20785L22.9506 5.21612C23.0032 5.23461 23.0528 5.25754 23.0975 5.2782C23.1119 5.28489 23.1259 5.29135 23.1393 5.29733C23.2336 5.3385 23.3301 5.38745 23.4073 5.42861C23.4588 5.45533 23.509 5.48392 23.556 5.51073C23.5814 5.52523 23.606 5.53921 23.6293 5.55209C23.6677 5.57331 23.7011 5.59601 23.7332 5.61784C23.7567 5.63378 23.7795 5.64925 23.803 5.66334C24.1268 5.87249 24.4292 6.11724 24.7026 6.39202L24.7123 6.40871C24.813 6.50995 24.9085 6.61675 24.9975 6.72911Z" fill="#5669FF"/>
<path d="M20.625 3.39616V7.33558C20.625 7.83193 20.2222 8.23396 19.725 8.23396C19.2277 8.23396 18.825 7.83193 18.825 7.33558V3.40514C18.8205 2.90879 19.221 2.50339 19.7182 2.50002C20.2155 2.49665 20.6216 2.89531 20.625 3.39167V3.39616Z" fill="#5669FF"/>
<path d="M11.175 3.41037V7.34005C11.175 7.83856 10.7718 8.24275 10.2744 8.24275C9.77712 8.24275 9.375 7.83856 9.375 7.34005V3.41037C9.375 2.91186 9.77712 2.50879 10.2744 2.50879C10.7718 2.50879 11.175 2.91186 11.175 3.41037Z" fill="#5669FF"/>
<path fill-rule="evenodd" clip-rule="evenodd" d="M3.75 21.1376V11.4448H26.25V21.1376C26.25 25.3644 23.8895 27.4999 19.2114 27.4999H10.7779C6.11052 27.4999 3.75 25.3644 3.75 21.1376ZM8.82513 16.8334C8.82513 17.4198 9.2865 17.8956 9.85517 17.8956C10.4346 17.8956 10.8959 17.4088 10.8852 16.8223C10.8852 16.2359 10.4238 15.7601 9.8659 15.7601H9.85517C9.2865 15.7601 8.82513 16.247 8.82513 16.8334ZM13.9646 16.8334C13.9646 17.4198 14.4367 17.8956 15.0054 17.8956C15.574 17.8956 16.0354 17.4198 16.0354 16.8223C16.0354 16.247 15.574 15.7712 15.0054 15.7601H14.9946C14.426 15.7712 13.9646 16.247 13.9646 16.8334ZM20.1449 17.8956C19.5762 17.8956 19.1148 17.4198 19.1148 16.8334C19.1148 16.247 19.5655 15.7712 20.1449 15.7712C20.7135 15.7712 21.1749 16.247 21.1749 16.8334C21.1749 17.4198 20.7135 17.8956 20.1449 17.8956ZM20.1449 22.4322C19.5762 22.4322 19.1148 21.9564 19.1041 21.37C19.1041 20.7836 19.5655 20.3078 20.1341 20.3078H20.1449C20.7135 20.3078 21.1749 20.7836 21.1749 21.37C21.1749 21.9564 20.7135 22.4322 20.1449 22.4322ZM15.0054 22.4322C14.4367 22.4322 13.9646 21.9564 13.9646 21.37C13.9646 20.7836 14.426 20.3078 14.9946 20.2967H15.0054C15.574 20.3078 16.0247 20.7836 16.0354 21.3589C16.0354 21.9564 15.574 22.4322 15.0054 22.4322ZM9.85515 22.4322C9.28648 22.4322 8.82511 21.9564 8.82511 21.37C8.81438 20.7836 9.27575 20.2967 9.85515 20.2967C10.4238 20.2967 10.8852 20.7725 10.8852 21.3589C10.8852 21.9454 10.4238 22.4322 9.85515 22.4322Z" fill="#5669FF"/>
</svg>
