<svg width="15" height="15" viewBox="0 0 15 15" fill="none" xmlns="http://www.w3.org/2000/svg">
<g clip-path="url(#clip0_704_6639)">
<path d="M10.3038 9.31769C11.7328 9.29243 12.0473 7.32658 10.6988 6.8584L9.14185 8.54697C9.33614 9.00442 9.79418 9.31769 10.3038 9.31769Z" fill="white"/>
<path d="M14.9153 6.76649C14.7151 5.56556 14.1525 4.63864 13.2789 4.05986C12.872 4.50152 11.7509 5.71693 11.3278 6.17599C12.0085 6.54494 12.4443 7.25941 12.4443 8.05651C12.4491 9.90394 10.2197 10.885 8.86113 9.63753C8.7316 9.92413 8.54991 10.1879 8.32104 10.4168C7.41389 11.4002 4.60396 11.638 3.4045 11.603C3.36945 10.4006 3.60817 7.59199 4.5908 6.68649C5.09218 6.18537 5.74628 5.92836 6.40477 5.91576C7.12538 5.24904 8.12469 4.32431 8.84237 3.66014C7.8455 3.92283 6.38534 4.6183 5.93999 3.96169C5.73157 3.4698 6.67909 2.32681 5.93149 1.36759C5.3188 0.598297 3.94758 0.742801 3.17269 1.28934C-0.600182 3.89426 -1.10467 9.61748 2.189 12.8013C6.22105 16.8644 13.2546 15.0237 14.7998 9.51767C14.8837 9.17113 15.1239 8.03512 14.9153 6.76649Z" fill="white"/>
<path d="M8.32104 6.68646C8.56603 6.93145 8.75681 7.216 8.88751 7.52576C9.38655 6.98528 12.0214 4.12659 12.4589 3.65249L14.7984 1.11524C15.0539 0.838012 15.0607 0.427739 14.8139 0.180696C14.5666 -0.0663473 14.1557 -0.059314 13.8785 0.197107L10.4571 3.36354C9.71421 4.05083 8.23658 5.4188 7.47852 6.12028C7.78505 6.24864 8.07195 6.43736 8.32104 6.68646Z" fill="white"/>
<path d="M7.23013 6.97216C6.56265 6.64734 5.75376 6.76799 5.21247 7.30741C4.65338 7.80174 4.33595 9.68298 4.30371 10.7033C5.32699 10.67 7.2037 10.3545 7.69931 9.79452C8.03163 9.46223 8.21449 9.0206 8.21449 8.55113C8.21441 8.08101 8.03134 7.63935 7.69931 7.30771V7.30741C7.55864 7.16646 7.39981 7.0548 7.23013 6.97216Z" fill="white"/>
</g>
<defs>
<clipPath id="clip0_704_6639">
<rect width="15" height="15" fill="white"/>
</clipPath>
</defs>
</svg>
