<svg width="19" height="19" viewBox="0 0 19 19" fill="none" xmlns="http://www.w3.org/2000/svg">
<g clip-path="url(#clip0_704_6822)">
<path d="M6.47511 3.74565V12.5991C5.91147 12.0862 5.16288 11.7733 4.34271 11.7733C2.59374 11.7733 1.17084 13.1962 1.17084 14.9452C1.17084 16.6941 2.59374 18.117 4.34271 18.117C6.08952 18.117 7.5108 16.6977 7.51445 14.9518H7.51459V8.62536L16.6235 5.88806V10.4652C16.0599 9.95248 15.3113 9.6394 14.4911 9.6394C12.7421 9.6394 11.3192 11.0623 11.3192 12.8113C11.3192 14.5602 12.7421 15.9832 14.4911 15.9832C16.2341 15.9832 17.6531 14.5699 17.6627 12.829H17.663V0.383545L6.47511 3.74565Z" fill="white"/>
</g>
<defs>
<clipPath id="clip0_704_6822">
<rect width="17.7335" height="17.7335" fill="white" transform="translate(0.547363 0.417725)"/>
</clipPath>
</defs>
</svg>
