<svg width="15" height="15" viewBox="0 0 15 15" fill="none" xmlns="http://www.w3.org/2000/svg">
<g clip-path="url(#clip0_704_8168)">
<path d="M13.1248 6.25073C13.1248 10.6257 7.49976 14.3757 7.49976 14.3757C7.49976 14.3757 1.87476 10.6257 1.87476 6.25073C1.87476 4.75889 2.46739 3.32815 3.52228 2.27326C4.57717 1.21836 6.00791 0.625732 7.49976 0.625732C8.9916 0.625732 10.4223 1.21836 11.4772 2.27326C12.5321 3.32815 13.1248 4.75889 13.1248 6.25073Z" stroke="#5669FF" stroke-width="1.69811" stroke-linecap="round" stroke-linejoin="round"/>
<path d="M7.49951 8.12524C8.53505 8.12524 9.37451 7.28578 9.37451 6.25024C9.37451 5.21471 8.53505 4.37524 7.49951 4.37524C6.46398 4.37524 5.62451 5.21471 5.62451 6.25024C5.62451 7.28578 6.46398 8.12524 7.49951 8.12524Z" stroke="#5669FF" stroke-width="1.69811" stroke-linecap="round" stroke-linejoin="round"/>
</g>
<defs>
<clipPath id="clip0_704_8168">
<rect width="15" height="15" fill="white" transform="translate(-0.000244141 0.000244141)"/>
</clipPath>
</defs>
</svg>
