<svg width="21" height="24" viewBox="0 0 21 24" fill="none" xmlns="http://www.w3.org/2000/svg">
<path opacity="0.4" fill-rule="evenodd" clip-rule="evenodd" d="M6.93791 3.59583H14.1044V1.92725H6.93791V3.59583ZM5.30793 1.99561V2.00391C4.7485 2.05479 4.19508 2.16589 3.65667 2.33306V2.32683C3.64067 2.33356 3.6256 2.33874 3.61114 2.34371C3.59214 2.35024 3.57421 2.35641 3.5566 2.36525C3.51356 2.37563 3.47153 2.39121 3.4315 2.41094C3.31341 2.44935 3.19532 2.49504 3.08424 2.54176C3.05472 2.55319 3.02519 2.56642 2.99567 2.57966L2.99567 2.57966C2.96615 2.5929 2.93662 2.60614 2.9071 2.61756C2.86657 2.63677 2.82429 2.6578 2.78201 2.67882L2.78199 2.67883C2.73971 2.69985 2.69744 2.72088 2.65691 2.74008L2.45676 2.85534C2.41975 2.87421 2.3855 2.89635 2.35054 2.91893C2.32973 2.93238 2.30867 2.94599 2.28663 2.95917C1.9854 3.15334 1.70619 3.38073 1.454 3.63927L1.43898 3.65485C1.40586 3.69346 1.37288 3.73093 1.34034 3.76788L1.34034 3.76788C1.28538 3.8303 1.2317 3.89128 1.18079 3.95389L1.16578 3.96842C0.347154 5.09812 -0.0631583 6.49051 0.00789579 7.9016V8.34911H1.62413V7.89744C1.62413 5.93086 2.2506 4.70667 3.64466 4.07952C4.17707 3.85421 4.7395 3.71507 5.31193 3.66419H5.32694V2.00287L5.30793 1.99561ZM19.831 3.94806L19.838 3.9626C20.6556 5.09333 21.0639 6.48676 20.9919 7.89785V8.34952H19.3767V7.88642C19.4107 7.05369 19.2436 6.2251 18.8893 5.47647C18.549 4.83583 18.0046 4.33847 17.3471 4.06851C16.8237 3.84319 16.2693 3.70301 15.7039 3.65318V2.00016C16.2633 2.05208 16.8167 2.16214 17.3561 2.32931V2.32101C17.3864 2.33476 17.4095 2.34294 17.4493 2.35697L17.4562 2.35942C17.4746 2.36594 17.4918 2.37245 17.5088 2.37889C17.5324 2.38785 17.5557 2.39665 17.5813 2.40511C17.6919 2.44141 17.7954 2.48421 17.9019 2.52823L17.9205 2.53594C17.9697 2.55319 18.016 2.5746 18.0577 2.59388C18.0712 2.60012 18.0842 2.60615 18.0967 2.61174C18.1847 2.65015 18.2748 2.69584 18.3469 2.73426C18.3949 2.7592 18.4417 2.78588 18.4856 2.81091C18.5094 2.82444 18.5323 2.83749 18.554 2.84951C18.5899 2.86931 18.6211 2.8905 18.651 2.91087C18.6729 2.92575 18.6942 2.9402 18.7162 2.95334C19.0184 3.14855 19.3006 3.37698 19.5558 3.63345L19.5648 3.64902C19.6589 3.74351 19.7479 3.84319 19.831 3.94806Z" fill="#5669FF"/>
<path d="M15.7501 0.836416V4.5132C15.7501 4.97647 15.3742 5.3517 14.9101 5.3517C14.446 5.3517 14.0701 4.97647 14.0701 4.5132V0.844801C14.0659 0.381534 14.4397 0.00316413 14.9038 1.97829e-05C15.3679 -0.00312456 15.747 0.368956 15.7501 0.832223V0.836416Z" fill="#5669FF"/>
<path d="M6.93 0.849532V4.51723C6.93 4.9825 6.55365 5.35975 6.08948 5.35975C5.62531 5.35975 5.25 4.9825 5.25 4.51723V0.849532C5.25 0.384258 5.62531 0.00805664 6.08948 0.00805664C6.55365 0.00805664 6.93 0.384258 6.93 0.849532Z" fill="#5669FF"/>
<path fill-rule="evenodd" clip-rule="evenodd" d="M0 17.3955V8.34888H21V17.3955C21 21.3405 18.7969 23.3336 14.4306 23.3336H6.55937C2.20315 23.3336 0 21.3405 0 17.3955ZM4.73665 13.3793C4.73665 13.9266 5.16727 14.3707 5.69803 14.3707C6.2388 14.3707 6.66941 13.9163 6.6594 13.3689C6.6594 12.8216 6.22878 12.3775 5.70804 12.3775H5.69803C5.16727 12.3775 4.73665 12.8319 4.73665 13.3793ZM9.53369 13.3794C9.53369 13.9268 9.97432 14.3708 10.5051 14.3708C11.0358 14.3708 11.4665 13.9268 11.4665 13.3691C11.4665 12.8321 11.0358 12.388 10.5051 12.3777H10.4951C9.96431 12.388 9.53369 12.8321 9.53369 13.3794ZM15.3019 14.3708C14.7711 14.3708 14.3405 13.9267 14.3405 13.3793C14.3405 12.832 14.7611 12.3879 15.3019 12.3879C15.8326 12.3879 16.2632 12.832 16.2632 13.3793C16.2632 13.9267 15.8326 14.3708 15.3019 14.3708ZM15.3016 18.6045C14.7709 18.6045 14.3403 18.1604 14.3302 17.6131C14.3302 17.0657 14.7609 16.6217 15.2916 16.6217H15.3016C15.8324 16.6217 16.263 17.0657 16.263 17.6131C16.263 18.1604 15.8324 18.6045 15.3016 18.6045ZM10.5051 18.6046C9.97432 18.6046 9.53369 18.1605 9.53369 17.6131C9.53369 17.0658 9.96431 16.6217 10.4951 16.6114H10.5051C11.0358 16.6217 11.4564 17.0658 11.4665 17.6028C11.4665 18.1605 11.0358 18.6046 10.5051 18.6046ZM5.69812 18.6046C5.16736 18.6046 4.73674 18.1605 4.73674 17.6131C4.72673 17.0658 5.15734 16.6114 5.69812 16.6114C6.22887 16.6114 6.65949 17.0555 6.65949 17.6028C6.65949 18.1502 6.22887 18.6046 5.69812 18.6046Z" fill="#5669FF"/>
</svg>
