<svg width="25" height="24" viewBox="0 0 25 24" fill="none" xmlns="http://www.w3.org/2000/svg">
<path d="M12.1623 2.28955C6.84149 2.28955 2.51257 6.61847 2.51257 11.9393C2.51257 17.2601 6.84149 21.589 12.1623 21.589C17.4831 21.589 21.812 17.2601 21.812 11.9393C21.812 6.61847 17.4831 2.28955 12.1623 2.28955ZM13.6469 16.393H10.6777C10.4808 16.393 10.292 16.3148 10.1528 16.1756C10.0136 16.0364 9.93543 15.8476 9.93543 15.6507C9.93543 15.4538 10.0136 15.265 10.1528 15.1258C10.292 14.9866 10.4808 14.9084 10.6777 14.9084H13.6469C13.8437 14.9084 14.0325 14.9866 14.1717 15.1258C14.3109 15.265 14.3891 15.4538 14.3891 15.6507C14.3891 15.8476 14.3109 16.0364 14.1717 16.1756C14.0325 16.3148 13.8437 16.393 13.6469 16.393ZM15.8737 13.4238H8.45086C8.25399 13.4238 8.06519 13.3456 7.92598 13.2064C7.78678 13.0672 7.70857 12.8784 7.70857 12.6815C7.70857 12.4847 7.78678 12.2959 7.92598 12.1567C8.06519 12.0175 8.25399 11.9393 8.45086 11.9393H15.8737C16.0706 11.9393 16.2594 12.0175 16.3986 12.1567C16.5378 12.2959 16.616 12.4847 16.616 12.6815C16.616 12.8784 16.5378 13.0672 16.3986 13.2064C16.2594 13.3456 16.0706 13.4238 15.8737 13.4238ZM17.3583 10.4547H6.96629C6.76942 10.4547 6.58062 10.3765 6.44141 10.2373C6.30221 10.0981 6.224 9.90927 6.224 9.71241C6.224 9.51554 6.30221 9.32674 6.44141 9.18753C6.58062 9.04833 6.76942 8.97012 6.96629 8.97012H17.3583C17.5551 8.97012 17.744 9.04833 17.8832 9.18753C18.0224 9.32674 18.1006 9.51554 18.1006 9.71241C18.1006 9.90927 18.0224 10.0981 17.8832 10.2373C17.744 10.3765 17.5551 10.4547 17.3583 10.4547Z" fill="#A29EF0"/>
</svg>
